<svg height='300px' width='300px'  fill="#000000" xmlns="http://www.w3.org/2000/svg" xmlns:xlink="http://www.w3.org/1999/xlink" version="1.1" x="0px" y="0px" viewBox="0 0 100 100" enable-background="new 0 0 100 100" xml:space="preserve"><path fill="#000000" d="M3.536,45.294c0-2.157,1.748-3.906,3.906-3.906h85.392c2.156,0,3.906,1.749,3.906,3.906v47.438  c0,2.156-1.75,3.904-3.906,3.904H7.442c-2.158,0-3.906-1.748-3.906-3.904V45.294z M50.1,50.332c-3.572,0-7.176,0.322-10.467,0.936  c-2.572,0.479-3.504,2.516-3.123,4.554c0.379,2.037,1.979,3.604,4.555,3.123c2.84-0.529,5.951-0.803,9.035-0.803  c3.253,0,6.439,0.305,9.521,0.893c2.57,0.488,4.178-1.069,4.564-3.105c0.389-2.038-0.535-4.075-3.104-4.565  C57.523,50.688,53.854,50.332,50.1,50.332z M73.613,11.27h8.779l-0.896-1.876c-0.09-0.124-0.152-0.276-0.178-0.457h-6.635  c-0.035,0.196-0.094,0.333-0.176,0.447L73.613,11.27z M82.418,28.538c-0.025-0.178-0.035-0.374-0.025-0.591l0.012-0.287h-8.787  v0.601c-0.004,2.757-1.627,5.673-2.643,7.117c-1.129,1.605-2.264,2.57-3.021,4.289H65.68c0.805-2.321,2.189-3.555,3.562-5.508  c0.949-1.353,2.256-3.819,2.258-5.901l-0.004-0.216c-0.238-5.289,0.018-9.534,0.312-12.386c0.096-0.95,0.201-1.9,0.365-2.834  l-0.514-0.494c-0.195-0.152-0.342-0.371-0.387-0.626c-0.049-0.257,0.012-0.511,0.141-0.724l1.178-2.492  c0.104-1.068,0.92-1.648,1.799-1.668h7.188l0.098,0.003c0.898,0.045,1.617,0.661,1.73,1.661l1.189,2.486  c0.129,0.213,0.189,0.468,0.141,0.724c-0.045,0.258-0.188,0.475-0.387,0.628l-0.518,0.502c0.018,0.107,0.041,0.238,0.062,0.403  c0.127,0.87,0.279,2.068,0.408,3.559c0.244,2.796,0.412,6.628,0.205,11.258c-0.008,0.2-0.004,0.405,0.012,0.611  c0.156,2.013,1.361,4.257,2.24,5.506c1.402,1.995,2.752,3.144,3.562,5.508h-2.271c-0.758-1.711-1.893-2.678-3.025-4.289  c-0.955-1.36-2.42-3.981-2.619-6.55C82.4,28.724,82.404,28.628,82.418,28.538z M17.108,8.486c0.105-1.068,0.92-1.648,1.801-1.668  h7.189l0.096,0.003c0.898,0.045,1.615,0.661,1.732,1.661l1.188,2.486c0.129,0.213,0.189,0.468,0.141,0.724  c-0.043,0.258-0.188,0.475-0.387,0.628l-0.518,0.502c0.02,0.107,0.041,0.238,0.064,0.403c0.127,0.87,0.277,2.068,0.406,3.559  c0.242,2.796,0.412,6.628,0.205,11.258c-0.008,0.2-0.004,0.405,0.012,0.611c0.156,2.013,1.361,4.257,2.242,5.506  c1.4,1.995,2.75,3.144,3.562,5.508h-2.271c-0.76-1.711-1.895-2.678-3.025-4.289c-0.955-1.36-2.42-3.981-2.617-6.55  c-0.008-0.104-0.004-0.2,0.01-0.29c-0.025-0.178-0.035-0.374-0.025-0.591l0.012-0.287h-8.787v0.601  c-0.004,2.757-1.627,5.673-2.645,7.117c-1.127,1.605-2.262,2.57-3.021,4.289H10.2c0.805-2.321,2.189-3.555,3.562-5.508  c0.949-1.353,2.254-3.819,2.256-5.901l-0.006-0.216c-0.234-5.289,0.02-9.534,0.314-12.386c0.098-0.95,0.203-1.9,0.363-2.834  l-0.51-0.494c-0.197-0.152-0.344-0.371-0.387-0.626c-0.051-0.257,0.01-0.511,0.139-0.724L17.108,8.486z M18.133,11.27h8.779  l-0.896-1.876c-0.09-0.124-0.154-0.276-0.18-0.457h-6.633c-0.035,0.196-0.096,0.333-0.178,0.447L18.133,11.27z M44.848,8.486  c0.105-1.068,0.92-1.648,1.801-1.668h7.189l0.096,0.003c0.9,0.045,1.615,0.661,1.734,1.661l1.186,2.486  c0.131,0.213,0.189,0.468,0.143,0.724c-0.045,0.258-0.189,0.475-0.387,0.628l-0.518,0.502c0.018,0.107,0.039,0.238,0.062,0.403  c0.125,0.87,0.277,2.068,0.406,3.559c0.242,2.796,0.412,6.628,0.207,11.258c-0.01,0.2-0.006,0.405,0.01,0.611  c0.154,2.013,1.363,4.257,2.24,5.506c1.402,1.995,2.752,3.144,3.564,5.508h-2.273c-0.758-1.711-1.893-2.678-3.023-4.289  c-0.955-1.36-2.42-3.981-2.617-6.55c-0.01-0.104-0.006-0.2,0.01-0.29c-0.027-0.178-0.037-0.374-0.027-0.591l0.014-0.287h-8.789  v0.601c-0.002,2.757-1.627,5.673-2.643,7.117c-1.127,1.605-2.262,2.57-3.021,4.289H37.94c0.803-2.321,2.191-3.555,3.562-5.508  c0.949-1.353,2.254-3.819,2.256-5.901l-0.004-0.216c-0.236-5.289,0.018-9.534,0.312-12.386c0.1-0.95,0.203-1.9,0.365-2.834  l-0.512-0.494c-0.197-0.152-0.344-0.371-0.387-0.626c-0.051-0.257,0.01-0.511,0.139-0.724L44.848,8.486z M45.874,11.27h8.777  l-0.895-1.876c-0.09-0.124-0.152-0.276-0.18-0.457h-6.632c-0.035,0.196-0.094,0.333-0.176,0.447L45.874,11.27z"></path></svg>